<svg xmlns="http://www.w3.org/2000/svg" viewBox="0 0 960 540" role="img" aria-labelledby="title desc">
  <title id="title">YOLO Labeling Playground Preview</title>
  <desc id="desc">Image labeling interface with bounding boxes and thumbnail review strip.</desc>
  <rect width="960" height="540" fill="#f6f1e8"/>
  <rect x="54" y="50" width="852" height="440" rx="18" fill="#fffaf1" stroke="#d9d0c2" stroke-width="2"/>
  <rect x="78" y="78" width="194" height="386" rx="10" fill="#eef4ee" stroke="#cdd8cf"/>
  <rect x="296" y="78" width="586" height="318" rx="10" fill="#17201d"/>
  <rect x="322" y="106" width="534" height="262" rx="8" fill="#dfe8df"/>
  <path d="M322 337 455 228l84 64 74-92 243 137v31H322z" fill="#91aa93"/>
  <circle cx="714" cy="156" r="38" fill="#f3c46f"/>
  <rect x="412" y="152" width="134" height="92" fill="none" stroke="#1f5d4a" stroke-width="8"/>
  <rect x="623" y="222" width="92" height="74" fill="none" stroke="#c8872e" stroke-width="8"/>
  <rect x="402" y="124" width="64" height="26" rx="5" fill="#1f5d4a"/>
  <text x="418" y="143" fill="#fffaf1" font-family="Arial, sans-serif" font-size="16" font-weight="700">bee</text>
  <rect x="314" y="416" width="74" height="54" rx="7" fill="#dfe8df" stroke="#1f5d4a" stroke-width="4"/>
  <rect x="398" y="416" width="74" height="54" rx="7" fill="#dfe8df" stroke="#cdd8cf"/>
  <rect x="482" y="416" width="74" height="54" rx="7" fill="#dfe8df" stroke="#cdd8cf"/>
  <rect x="566" y="416" width="74" height="54" rx="7" fill="#dfe8df" stroke="#cdd8cf"/>
  <rect x="650" y="416" width="74" height="54" rx="7" fill="#dfe8df" stroke="#cdd8cf"/>
  <rect x="734" y="416" width="74" height="54" rx="7" fill="#dfe8df" stroke="#cdd8cf"/>
  <rect x="818" y="416" width="38" height="54" rx="7" fill="#dfe8df" stroke="#cdd8cf"/>
  <rect x="100" y="104" width="118" height="18" rx="9" fill="#1f5d4a"/>
  <rect x="100" y="142" width="136" height="10" rx="5" fill="#9ead9f"/>
  <rect x="100" y="166" width="112" height="10" rx="5" fill="#9ead9f"/>
  <rect x="100" y="214" width="134" height="42" rx="8" fill="#1f5d4a"/>
  <rect x="100" y="272" width="134" height="42" rx="8" fill="#dfe8df" stroke="#cdd8cf"/>
  <rect x="100" y="330" width="134" height="42" rx="8" fill="#dfe8df" stroke="#cdd8cf"/>
</svg>
