<svg xmlns="http://www.w3.org/2000/svg" viewBox="0 0 512 512" role="img" aria-label="Focus Timer">
  <rect width="512" height="512" rx="112" fill="#f3e8db"/>
  <path d="M222 70h68c16 0 29 13 29 29v34H193V99c0-16 13-29 29-29Z" fill="#2b2622"/>
  <path d="M156 133l-35-35c-12-12-12-31 0-43s31-12 43 0l35 35-43 43Zm200 0 35-35c12-12 12-31 0-43s-31-12-43 0l-35 35 43 43Z" fill="#2b2622" opacity=".92"/>
  <circle cx="256" cy="286" r="174" fill="#2b2622"/>
  <circle cx="256" cy="286" r="144" fill="#fff9f1"/>
  <path d="M256 165v38M256 369v38M135 286h38M339 286h38" stroke="#2b2622" stroke-width="24" stroke-linecap="round"/>
  <path d="M256 286V206M256 286l72 42" stroke="#1a73e8" stroke-width="28" stroke-linecap="round" stroke-linejoin="round"/>
  <circle cx="256" cy="286" r="24" fill="#2b2622"/>
</svg>
